<?xml version="1.0" encoding="UTF-8"?>
<svg xmlns="http://www.w3.org/2000/svg" xmlns:xlink="http://www.w3.org/1999/xlink" viewBox="0 0 40 40" width="40px" height="40px">
<g id="surface109323300">
<path style=" stroke:none;fill-rule:nonzero;fill:rgb(80.000001%,80.000001%,80.000001%);fill-opacity:1;" d="M 20 40 C 8.953125 40 0 31.046875 0 20 C 0 8.953125 8.953125 0 20 0 C 31.046875 0 40 8.953125 40 20 C 40 31.046875 31.046875 40 20 40 Z M 20 40 "/>
<path style=" stroke:none;fill-rule:nonzero;fill:rgb(1.176471%,66.274512%,95.686275%);fill-opacity:1;" d="M 20 0.167969 C 9.046875 0.167969 0.167969 9.046875 0.167969 20 C 0.167969 30.953125 9.046875 39.832031 20 39.832031 C 30.953125 39.832031 39.832031 30.953125 39.832031 20 C 39.832031 9.046875 30.953125 0.167969 20 0.167969 Z M 20 0.167969 "/>
<path style=" stroke:none;fill-rule:nonzero;fill:rgb(100%,100%,100%);fill-opacity:1;" d="M 31.898438 13.175781 C 31.023438 13.566406 29.917969 13.929688 28.925781 14.050781 C 29.933594 13.449219 31.535156 12.203125 31.898438 11.074219 C 30.957031 11.628906 29.25 12.222656 28.136719 12.4375 C 27.25 11.492188 25.984375 11.074219 24.578125 11.074219 C 21.882812 11.074219 20 13.359375 20 16.035156 L 20 18.015625 C 16.035156 18.015625 12.164062 14.996094 9.757812 12.066406 C 9.335938 12.78125 9.097656 13.617188 9.097656 14.503906 C 9.097656 16.308594 10.753906 18.136719 12.066406 19.007812 C 11.265625 18.984375 9.75 18.371094 9.089844 18.015625 C 9.089844 18.03125 9.089844 18.050781 9.089844 18.074219 C 9.089844 20.421875 10.738281 22.015625 12.972656 22.457031 C 12.5625 22.570312 12.066406 22.976562 10.15625 22.976562 C 10.777344 24.894531 13.894531 25.910156 16.035156 25.949219 C 14.363281 27.246094 11.378906 27.933594 9.089844 27.933594 C 8.695312 27.933594 8.480469 27.957031 8.101562 27.910156 C 10.261719 29.277344 13.277344 29.917969 16.035156 29.917969 C 25.015625 29.917969 29.917969 23.054688 29.917969 16.65625 C 29.917969 16.449219 29.910156 15.742188 29.898438 15.539062 C 30.859375 14.859375 31.246094 14.152344 31.898438 13.175781 "/>
</g>
</svg>
