<svg width="40" height="40" viewBox="0 0 40 40" fill="none" xmlns="http://www.w3.org/2000/svg">
<path fill-rule="evenodd" clip-rule="evenodd" d="M19.9642 0.000122473C15.2239 0.000777586 10.6384 1.7333 7.02809 4.88776C3.41775 8.04223 1.01804 12.4129 0.258216 17.2178C-0.501606 22.0228 0.428033 26.9486 2.88084 31.1142C5.33364 35.2797 9.1496 38.4133 13.6461 39.9543C14.6444 40.1447 15.0723 39.5149 15.0723 38.973V35.4873C9.52438 36.7175 8.35489 32.7338 8.35489 32.7338C7.96476 31.4784 7.14365 30.4114 6.04445 29.7314C4.23317 28.4719 6.18707 28.4865 6.18707 28.4865C6.81974 28.5783 7.42361 28.8173 7.95258 29.1854C8.48154 29.5534 8.9216 30.0408 9.23914 30.6102C9.79157 31.6277 10.7149 32.3782 11.8061 32.6968C12.8972 33.0154 14.067 32.8759 15.058 32.3091C15.1386 31.2699 15.5847 30.2964 16.3131 29.5703C11.8919 29.0431 7.22819 27.2855 7.22819 19.4353C7.19586 17.3964 7.93163 15.4235 9.28192 13.9284C8.67074 12.1624 8.7422 10.223 9.48159 8.50942C9.48159 8.50942 11.1502 7.95288 14.9725 10.6038C18.2406 9.68835 21.6878 9.68835 24.9559 10.6038C28.7638 7.95288 30.4325 8.50942 30.4325 8.50942C31.1719 10.223 31.2433 12.1624 30.6321 13.9284C31.9824 15.4235 32.7182 17.3964 32.6859 19.4353C32.6859 27.3148 28.0222 29.0431 23.5725 29.5557C24.0491 30.0518 24.4167 30.6471 24.6504 31.3015C24.8841 31.9558 24.9786 32.654 24.9273 33.349V38.973C24.9273 39.6467 25.2839 40.1593 26.3535 39.9543C30.856 38.4114 34.6759 35.2718 37.1283 31.0985C39.5807 26.9253 40.5052 21.9914 39.736 17.1816C38.9669 12.3717 36.5543 8.00059 32.931 4.85199C29.3077 1.70339 24.7106 -0.0167167 19.9642 0.000122473V0.000122473Z" fill="black"/>
</svg>
