<?xml version="1.0" encoding="UTF-8"?>
<!DOCTYPE svg PUBLIC "-//W3C//DTD SVG 1.1//EN" "http://www.w3.org/Graphics/SVG/1.1/DTD/svg11.dtd">
<!-- Creator: CorelDRAW -->
<svg xmlns="http://www.w3.org/2000/svg" xml:space="preserve" width="2048px" height="2048px" style="shape-rendering:geometricPrecision; text-rendering:geometricPrecision; image-rendering:optimizeQuality; fill-rule:evenodd; clip-rule:evenodd"
viewBox="0 0 2048 2048"
 xmlns:xlink="http://www.w3.org/1999/xlink">
 <defs>
  <style type="text/css">
   <![CDATA[
    .fil0 {fill:#EF5350}
    .fil1 {fill:#FEFEFE}
    .fil2 {fill:#FEFEFE;fill-rule:nonzero}
   ]]>
  </style>
 </defs>
 <g id="Layer_x0020_1">
  <metadata id="CorelCorpID_0Corel-Layer"/>
  <rect class="fil0" x="-0.0011811" y="-0.0011811" width="2048" height="2048" rx="19800" ry="19800"/>
  <g id="_559963560">
   <path id="_559965576" class="fil1" d="M528.048 1159.98l991.9 0c7.54134,0 14.824,1.54252 21.5374,4.33111 6.94961,2.88898 13.1599,7.06654 18.2965,12.2032l0 0.0897638c5.17914,5.18032 9.3567,11.3599 12.202,18.2079 2.78977,6.71221 4.33229,13.9937 4.33229,21.5351l0 208.82c0,7.54134 -1.54252,14.824 -4.33229,21.5362 -2.88898,6.95079 -7.06536,13.161 -12.202,18.2965 -5.1378,5.1378 -11.3469,9.31536 -18.2977,12.2032 -6.71221,2.78977 -13.9937,4.33229 -21.5362,4.33229l-991.9 0c-7.54134,0 -14.8228,-1.5437 -21.5339,-4.33111 -6.95079,-2.89016 -13.1599,-7.06772 -18.2953,-12.2043 -5.13662,-5.13544 -9.313,-11.3457 -12.202,-18.2965 -2.78977,-6.71221 -4.33229,-13.9949 -4.33229,-21.5362l0 -208.82c0,-7.54134 1.54252,-14.8228 4.33229,-21.5351 2.84528,-6.84804 7.02284,-13.0276 12.202,-18.2079l0 -0.0897638c5.13662,-5.13662 11.3469,-9.31536 18.2953,-12.2032 6.71103,-2.78858 13.9937,-4.33111 21.5339,-4.33111zm104.73 91.7375c19.0618,0 36.3225,7.73032 48.8162,20.224 12.4937,12.4937 20.224,29.7555 20.224,48.8162 0,19.0618 -7.73032,36.3236 -20.224,48.8162 -12.4937,12.4937 -29.7544,20.2229 -48.8162,20.2229 -19.0618,0 -36.3225,-7.72914 -48.8162,-20.2229 -12.4937,-12.4925 -20.2229,-29.7544 -20.2229,-48.8162 0,-19.0606 7.72914,-36.3225 20.2229,-48.8162 12.4937,-12.4937 29.7544,-20.224 48.8162,-20.224zm16.2744 52.767c-4.16339,-4.16221 -9.91772,-6.73938 -16.2744,-6.73938 -6.35434,0 -12.111,2.57599 -16.2732,6.73938 -4.16221,4.16103 -6.73819,9.91654 -6.73819,16.2732 0,6.35552 2.57481,12.1122 6.73819,16.2732 4.16221,4.16339 9.91891,6.73938 16.2732,6.73938 6.3567,0 12.111,-2.57717 16.2744,-6.73938 4.16221,-4.16103 6.73819,-9.91772 6.73819,-16.2732 0,-6.3567 -2.57599,-12.1122 -6.73819,-16.2732zm513.029 -6.74056c12.7099,0 23.0126,10.3028 23.0126,23.0138 0,12.7099 -10.3028,23.0138 -23.0126,23.0138 -12.7099,0 -23.015,-10.3039 -23.015,-23.0138 0,-12.711 10.3051,-23.0138 23.015,-23.0138zm138.078 0c12.711,0 23.0138,10.3028 23.0138,23.0138 0,12.7099 -10.3028,23.0138 -23.0138,23.0138 -12.7099,0 -23.0138,-10.3039 -23.0138,-23.0138 0,-12.711 10.3039,-23.0138 23.0138,-23.0138zm115.065 0c12.711,0 23.0138,10.3028 23.0138,23.0138 0,12.7099 -10.3028,23.0138 -23.0138,23.0138 -12.7099,0 -23.0138,-10.3039 -23.0138,-23.0138 0,-12.711 10.3039,-23.0138 23.0138,-23.0138z"/>
   <path id="_559965336" class="fil1" d="M528.048 817.032l991.9 0c7.54134,0 14.824,1.54252 21.5374,4.33229 6.94961,2.88898 13.1599,7.06536 18.2965,12.2008l0 0.090945c5.17914,5.17914 9.3567,11.3599 12.202,18.2067 2.78977,6.71339 4.33229,13.9949 4.33229,21.5362l0 208.82c0,7.54134 -1.54252,14.824 -4.33229,21.5374 -2.88898,6.94843 -7.06536,13.1599 -12.202,18.2965 -5.1378,5.13662 -11.3469,9.31418 -18.2977,12.202 -6.71221,2.78977 -13.9937,4.33229 -21.5362,4.33229l-991.9 0c-7.54134,0 -14.8228,-1.5437 -21.5339,-4.33229 -6.95079,-2.88898 -13.1599,-7.06654 -18.2953,-12.202 -5.13662,-5.13662 -9.313,-11.348 -12.202,-18.2965 -2.78977,-6.71339 -4.33229,-13.9961 -4.33229,-21.5374l0 -208.82c0,-7.54134 1.54252,-14.8228 4.33229,-21.5362 2.84528,-6.84686 7.02284,-13.0276 12.202,-18.2067l0 -0.090945c5.13662,-5.13544 11.3469,-9.31418 18.2953,-12.2008 6.71103,-2.78977 13.9937,-4.33229 21.5339,-4.33229zm104.73 91.7387c19.0618,0 36.3225,7.72914 48.8162,20.2229 12.4949,12.4937 20.224,29.7544 20.224,48.8162 0,19.0618 -7.72914,36.3225 -20.224,48.8162 -12.4937,12.4937 -29.7544,20.2229 -48.8162,20.2229 -19.0618,0 -36.3225,-7.72914 -48.8162,-20.2229 -12.4937,-12.4937 -20.2229,-29.7544 -20.2229,-48.8162 0,-19.0618 7.72914,-36.3225 20.2229,-48.8162 12.4937,-12.4937 29.7544,-20.2229 48.8162,-20.2229zm16.2744 52.7658c-4.16339,-4.16221 -9.91772,-6.73938 -16.2744,-6.73938 -6.35434,0 -12.111,2.57599 -16.2732,6.73938 -4.16339,4.16221 -6.73819,9.91772 -6.73819,16.2732 0,6.3567 2.57599,12.111 6.73819,16.2744 4.16221,4.16221 9.91891,6.73701 16.2732,6.73701 6.3567,0 12.111,-2.57481 16.2744,-6.73701 4.16221,-4.16339 6.73819,-9.91772 6.73819,-16.2744 0,-6.35552 -2.57599,-12.111 -6.73819,-16.2732zm513.029 -6.74056c12.7099,0 23.0126,10.3039 23.0126,23.0138 0,12.7099 -10.3028,23.0138 -23.0126,23.0138 -12.7099,0 -23.015,-10.3039 -23.015,-23.0138 0,-12.7099 10.3051,-23.0138 23.015,-23.0138zm138.078 0c12.711,0 23.0138,10.3039 23.0138,23.0138 0,12.7099 -10.3028,23.0138 -23.0138,23.0138 -12.7099,0 -23.0138,-10.3039 -23.0138,-23.0138 0,-12.7099 10.3039,-23.0138 23.0138,-23.0138zm115.065 0c12.711,0 23.0138,10.3039 23.0138,23.0138 0,12.7099 -10.3028,23.0138 -23.0138,23.0138 -12.7099,0 -23.0138,-10.3039 -23.0138,-23.0138 0,-12.7099 10.3039,-23.0138 23.0138,-23.0138z"/>
   <path id="_559964712" class="fil1" d="M1541.49 476.331c6.94961,2.88898 13.1599,7.06536 18.2965,12.202l0 0.0897638c5.17914,5.18032 9.3567,11.3599 12.202,18.2079 2.78977,6.71339 4.33229,13.9937 4.33229,21.5362l0 208.819c0,7.54134 -1.54252,14.824 -4.33229,21.5374 -2.88898,6.94961 -7.06536,13.161 -12.202,18.2965 -5.1378,5.13662 -11.3469,9.31418 -18.2977,12.202 -6.71221,2.78977 -13.9937,4.33229 -21.5362,4.33229l-991.9 0c-7.54134,0 -14.8228,-1.54252 -21.5339,-4.33111 -6.95079,-2.89016 -13.1599,-7.06772 -18.2953,-12.2032 -5.13662,-5.13544 -9.313,-11.3469 -12.202,-18.2965 -2.78977,-6.71339 -4.33229,-13.9961 -4.33229,-21.5374l0 -208.819c0,-7.54253 1.54252,-14.8228 4.33229,-21.5362 2.84528,-6.84804 7.02284,-13.0276 12.202,-18.2079l0 -0.0897638c5.13662,-5.13662 11.3469,-9.31418 18.2953,-12.202 6.71103,-2.78977 13.9937,-4.33229 21.5339,-4.33229l991.9 0c7.54134,0 14.824,1.54252 21.5374,4.33229zm-908.708 87.4064c19.0618,0 36.3225,7.72914 48.8162,20.2229 12.4937,12.4937 20.224,29.7544 20.224,48.8162 0,19.0618 -7.73032,36.3225 -20.224,48.8162 -12.4937,12.4937 -29.7544,20.2229 -48.8162,20.2229 -19.0618,0 -36.3225,-7.72914 -48.8162,-20.2229 -12.4937,-12.4937 -20.2229,-29.7544 -20.2229,-48.8162 0,-19.0618 7.72914,-36.3225 20.2229,-48.8162 12.4937,-12.4937 29.7544,-20.2229 48.8162,-20.2229zm16.2744 52.7658c-4.16339,-4.16221 -9.91772,-6.73819 -16.2744,-6.73819 -6.35434,0 -12.111,2.57481 -16.2732,6.73819 -4.16339,4.16221 -6.73819,9.91891 -6.73819,16.2732 0,6.3567 2.57599,12.1122 6.73819,16.2744 4.16221,4.16339 9.91891,6.73819 16.2732,6.73819 6.3567,0 12.111,-2.57599 16.2744,-6.73819 4.16221,-4.16221 6.73819,-9.91772 6.73819,-16.2744 0,-6.35434 -2.57599,-12.111 -6.73819,-16.2732zm513.029 -6.74056c12.7099,0 23.0126,10.3039 23.0126,23.0138 0,12.7099 -10.3028,23.015 -23.0126,23.015 -12.7099,0 -23.015,-10.3051 -23.015,-23.015 0,-12.7099 10.3051,-23.0138 23.015,-23.0138zm138.078 0c12.711,0 23.0138,10.3039 23.0138,23.0138 0,12.7099 -10.3028,23.015 -23.0138,23.015 -12.7099,0 -23.0138,-10.3051 -23.0138,-23.015 0,-12.7099 10.3039,-23.0138 23.0138,-23.0138zm115.065 0c12.711,0 23.0138,10.3039 23.0138,23.0138 0,12.7099 -10.3028,23.015 -23.0138,23.015 -12.7099,0 -23.0138,-10.3051 -23.0138,-23.015 0,-12.7099 10.3039,-23.0138 23.0138,-23.0138z"/>
   <polygon id="_559964472" class="fil2" points="1047.01,761.175 1047.01,849.526 1000.99,849.526 1000.99,761.175 "/>
   <polygon id="_559963896" class="fil2" points="1047.01,1451.15 1047.01,1556.03 1000.99,1556.03 1000.99,1451.15 "/>
   <polygon id="_559964328" class="fil2" points="1047.01,1104.85 1047.01,1192.74 1000.99,1192.74 1000.99,1104.85 "/>
   <polygon id="_559963080" class="fil2" points="471.684,1529.97 1576.32,1529.97 1576.32,1576 471.684,1576 "/>
  </g>
 </g>
</svg>
