<?xml version="1.0" standalone="no"?>
<!DOCTYPE svg PUBLIC "-//W3C//DTD SVG 20010904//EN"
 "http://www.w3.org/TR/2001/REC-SVG-20010904/DTD/svg10.dtd">
<svg version="1.0" xmlns="http://www.w3.org/2000/svg"
 width="512.000000pt" height="512.000000pt" viewBox="0 0 512.000000 512.000000"
 preserveAspectRatio="xMidYMid meet">

<g transform="translate(0.000000,512.000000) scale(0.100000,-0.100000)"
fill="#000000" stroke="none">
<path d="M2345 5114 c-16 -2 -84 -11 -150 -20 -1014 -135 -1868 -905 -2118
-1909 -59 -237 -72 -348 -72 -625 0 -277 13 -388 72 -625 228 -913 945 -1630
1858 -1858 237 -59 348 -72 625 -72 277 0 388 13 625 72 913 228 1630 945
1858 1858 59 237 72 348 72 625 0 277 -13 388 -72 625 -228 915 -948 1634
-1863 1859 -222 54 -328 67 -580 71 -124 2 -238 1 -255 -1z m1675 -1744 l0
-170 -284 0 c-321 0 -296 7 -296 -86 l0 -54 290 0 290 0 0 -170 0 -170 -290 0
-290 0 0 -575 0 -575 -170 0 -171 0 3 848 3 847 27 57 c29 63 93 137 146 170
73 45 91 47 425 48 l317 0 0 -170z m-1316 19 c61 -22 145 -92 181 -150 51 -81
56 -122 53 -456 l-3 -308 -28 -61 c-36 -77 -104 -145 -182 -181 l-60 -28 -617
-3 -618 -3 0 -314 0 -315 -170 0 -170 0 0 920 0 920 780 0 c762 0 780 0 834
-21z"/>
<path d="M1441 3056 c-8 -9 -11 -85 -9 -257 l3 -244 578 -3 577 -2 -2 257 -3
258 -566 3 c-472 2 -568 0 -578 -12z"/>
</g>
</svg>
